<mxfile host="app.diagrams.net" agent="Mozilla/5.0 (Windows NT 10.0; Win64; x64) AppleWebKit/537.36 (KHTML, like Gecko) Chrome/131.0.0.0 Safari/537.36" version="25.0.1">
  <diagram name="Page-1" id="TK-jOA6Hf0uDrd-G1R7N">
    <mxGraphModel dx="2924" dy="2240" grid="1" gridSize="10" guides="1" tooltips="1" connect="1" arrows="1" fold="1" page="1" pageScale="1" pageWidth="850" pageHeight="1100" math="0" shadow="0">
      <root>
        <mxCell id="0" />
        <mxCell id="1" parent="0" />
        <mxCell id="WaP0hfBpP9HcLUZzrM8F-104" value="" style="rounded=0;whiteSpace=wrap;html=1;fillColor=none;" parent="1" vertex="1">
          <mxGeometry x="-560" y="-350" width="690" height="1340" as="geometry" />
        </mxCell>
        <mxCell id="WaP0hfBpP9HcLUZzrM8F-69" value="" style="shape=folder;fontStyle=1;spacingTop=10;tabWidth=140;tabHeight=30;tabPosition=left;html=1;whiteSpace=wrap;movable=1;resizable=1;rotatable=1;deletable=1;editable=1;locked=0;connectable=1;fillColor=none;" parent="1" vertex="1">
          <mxGeometry x="-515" y="730" width="580" height="230" as="geometry" />
        </mxCell>
        <mxCell id="WaP0hfBpP9HcLUZzrM8F-70" value="" style="shape=folder;fontStyle=1;spacingTop=10;tabWidth=140;tabHeight=30;tabPosition=left;html=1;whiteSpace=wrap;movable=1;resizable=1;rotatable=1;deletable=1;editable=1;locked=0;connectable=1;fillColor=none;" parent="1" vertex="1">
          <mxGeometry x="-520" y="380" width="610" height="330" as="geometry" />
        </mxCell>
        <mxCell id="WaP0hfBpP9HcLUZzrM8F-67" value="" style="shape=folder;fontStyle=1;spacingTop=10;tabWidth=140;tabHeight=30;tabPosition=left;html=1;whiteSpace=wrap;movable=1;resizable=1;rotatable=1;deletable=1;editable=1;locked=0;connectable=1;fillColor=none;" parent="1" vertex="1">
          <mxGeometry x="-520" y="130" width="580" height="230" as="geometry" />
        </mxCell>
        <mxCell id="WaP0hfBpP9HcLUZzrM8F-64" value="" style="shape=folder;fontStyle=1;spacingTop=10;tabWidth=140;tabHeight=30;tabPosition=left;html=1;whiteSpace=wrap;movable=1;resizable=1;rotatable=1;deletable=1;editable=1;locked=0;connectable=1;fillColor=none;" parent="1" vertex="1">
          <mxGeometry x="-520" y="-30" width="480" height="140" as="geometry" />
        </mxCell>
        <mxCell id="WaP0hfBpP9HcLUZzrM8F-61" value="" style="shape=folder;fontStyle=1;spacingTop=10;tabWidth=140;tabHeight=30;tabPosition=left;html=1;whiteSpace=wrap;movable=1;resizable=1;rotatable=1;deletable=1;editable=1;locked=0;connectable=1;fillColor=none;" parent="1" vertex="1">
          <mxGeometry x="-520" y="-290" width="570" height="240" as="geometry" />
        </mxCell>
        <mxCell id="WaP0hfBpP9HcLUZzrM8F-11" value="Access wardrobe tab" style="ellipse;whiteSpace=wrap;html=1;" parent="1" vertex="1">
          <mxGeometry x="-495" y="-140" width="140" height="70" as="geometry" />
        </mxCell>
        <mxCell id="WaP0hfBpP9HcLUZzrM8F-12" value="Manage clothes/outfits" style="ellipse;whiteSpace=wrap;html=1;" parent="1" vertex="1">
          <mxGeometry x="-347.5" y="-250" width="140" height="70" as="geometry" />
        </mxCell>
        <mxCell id="WaP0hfBpP9HcLUZzrM8F-13" value="Browse clothes/outfits" style="ellipse;whiteSpace=wrap;html=1;" parent="1" vertex="1">
          <mxGeometry x="-252.5" y="-140" width="140" height="70" as="geometry" />
        </mxCell>
        <mxCell id="WaP0hfBpP9HcLUZzrM8F-14" value="Search clothes/outfits" style="ellipse;whiteSpace=wrap;html=1;" parent="1" vertex="1">
          <mxGeometry x="-152.5" y="-250" width="140" height="70" as="geometry" />
        </mxCell>
        <mxCell id="WaP0hfBpP9HcLUZzrM8F-15" value="Access outfit planner" style="ellipse;whiteSpace=wrap;html=1;" parent="1" vertex="1">
          <mxGeometry x="-500" y="220" width="140" height="70" as="geometry" />
        </mxCell>
        <mxCell id="WaP0hfBpP9HcLUZzrM8F-16" value="Browse planned outfits " style="ellipse;whiteSpace=wrap;html=1;" parent="1" vertex="1">
          <mxGeometry x="-305" y="170" width="140" height="70" as="geometry" />
        </mxCell>
        <mxCell id="WaP0hfBpP9HcLUZzrM8F-17" value="Manage planned outfits " style="ellipse;whiteSpace=wrap;html=1;" parent="1" vertex="1">
          <mxGeometry x="-305" y="270" width="140" height="70" as="geometry" />
        </mxCell>
        <mxCell id="WaP0hfBpP9HcLUZzrM8F-18" value="" style="endArrow=none;dashed=1;html=1;rounded=0;entryX=0;entryY=0.5;entryDx=0;entryDy=0;exitX=1;exitY=0.5;exitDx=0;exitDy=0;startArrow=open;startFill=0;" parent="1" source="WaP0hfBpP9HcLUZzrM8F-11" target="WaP0hfBpP9HcLUZzrM8F-13" edge="1">
          <mxGeometry width="50" height="50" relative="1" as="geometry">
            <mxPoint x="-375" y="30" as="sourcePoint" />
            <mxPoint x="-325" y="-20" as="targetPoint" />
          </mxGeometry>
        </mxCell>
        <mxCell id="WaP0hfBpP9HcLUZzrM8F-102" value="&amp;lt;&amp;lt;include&amp;gt;&amp;gt;" style="edgeLabel;html=1;align=center;verticalAlign=middle;resizable=0;points=[];labelBackgroundColor=none;" parent="WaP0hfBpP9HcLUZzrM8F-18" connectable="0" vertex="1">
          <mxGeometry x="0.1013" y="-2" relative="1" as="geometry">
            <mxPoint as="offset" />
          </mxGeometry>
        </mxCell>
        <mxCell id="WaP0hfBpP9HcLUZzrM8F-19" value="" style="endArrow=open;dashed=1;html=1;rounded=0;entryX=0;entryY=0;entryDx=0;entryDy=0;exitX=0.5;exitY=1;exitDx=0;exitDy=0;startArrow=none;startFill=0;endFill=0;" parent="1" source="WaP0hfBpP9HcLUZzrM8F-12" target="WaP0hfBpP9HcLUZzrM8F-13" edge="1">
          <mxGeometry width="50" height="50" relative="1" as="geometry">
            <mxPoint x="-327.5" y="30" as="sourcePoint" />
            <mxPoint x="-277.5" y="-20" as="targetPoint" />
          </mxGeometry>
        </mxCell>
        <mxCell id="WaP0hfBpP9HcLUZzrM8F-93" value="&amp;lt;&amp;lt;extend&amp;gt;&amp;gt;" style="edgeLabel;html=1;align=center;verticalAlign=middle;resizable=0;points=[];labelBackgroundColor=none;" parent="WaP0hfBpP9HcLUZzrM8F-19" connectable="0" vertex="1">
          <mxGeometry x="0.2143" y="1" relative="1" as="geometry">
            <mxPoint x="-1" y="-10" as="offset" />
          </mxGeometry>
        </mxCell>
        <mxCell id="WaP0hfBpP9HcLUZzrM8F-21" value="" style="endArrow=none;dashed=1;html=1;rounded=0;entryX=0.5;entryY=1;entryDx=0;entryDy=0;exitX=1;exitY=0;exitDx=0;exitDy=0;startArrow=open;startFill=0;" parent="1" source="WaP0hfBpP9HcLUZzrM8F-13" target="WaP0hfBpP9HcLUZzrM8F-14" edge="1">
          <mxGeometry width="50" height="50" relative="1" as="geometry">
            <mxPoint x="-267.5" y="-170" as="sourcePoint" />
            <mxPoint x="-216.5" y="-120" as="targetPoint" />
          </mxGeometry>
        </mxCell>
        <mxCell id="WaP0hfBpP9HcLUZzrM8F-92" value="&amp;lt;&amp;lt;extend&amp;gt;&amp;gt;" style="edgeLabel;html=1;align=center;verticalAlign=middle;resizable=0;points=[];labelBackgroundColor=none;" parent="WaP0hfBpP9HcLUZzrM8F-21" connectable="0" vertex="1">
          <mxGeometry x="0.3164" y="2" relative="1" as="geometry">
            <mxPoint x="-1" y="4" as="offset" />
          </mxGeometry>
        </mxCell>
        <mxCell id="WaP0hfBpP9HcLUZzrM8F-22" value="" style="endArrow=none;dashed=1;html=1;rounded=0;entryX=0;entryY=0.5;entryDx=0;entryDy=0;exitX=1;exitY=0;exitDx=0;exitDy=0;startArrow=open;startFill=0;" parent="1" source="WaP0hfBpP9HcLUZzrM8F-15" target="WaP0hfBpP9HcLUZzrM8F-16" edge="1">
          <mxGeometry width="50" height="50" relative="1" as="geometry">
            <mxPoint x="-385" y="260" as="sourcePoint" />
            <mxPoint x="-335" y="210" as="targetPoint" />
          </mxGeometry>
        </mxCell>
        <mxCell id="WaP0hfBpP9HcLUZzrM8F-90" value="&amp;lt;&amp;lt;extend&amp;gt;&amp;gt;" style="edgeLabel;html=1;align=center;verticalAlign=middle;resizable=0;points=[];labelBackgroundColor=none;" parent="WaP0hfBpP9HcLUZzrM8F-22" connectable="0" vertex="1">
          <mxGeometry x="0.3685" y="1" relative="1" as="geometry">
            <mxPoint x="-21" as="offset" />
          </mxGeometry>
        </mxCell>
        <mxCell id="WaP0hfBpP9HcLUZzrM8F-23" value="" style="endArrow=none;dashed=1;html=1;rounded=0;entryX=0;entryY=0.5;entryDx=0;entryDy=0;exitX=1;exitY=1;exitDx=0;exitDy=0;startArrow=open;startFill=0;" parent="1" source="WaP0hfBpP9HcLUZzrM8F-15" target="WaP0hfBpP9HcLUZzrM8F-17" edge="1">
          <mxGeometry width="50" height="50" relative="1" as="geometry">
            <mxPoint x="-376" y="250" as="sourcePoint" />
            <mxPoint x="-295" y="215" as="targetPoint" />
          </mxGeometry>
        </mxCell>
        <mxCell id="WaP0hfBpP9HcLUZzrM8F-89" value="&amp;lt;&amp;lt;extend&amp;gt;&amp;gt;" style="edgeLabel;html=1;align=center;verticalAlign=middle;resizable=0;points=[];labelBackgroundColor=none;" parent="WaP0hfBpP9HcLUZzrM8F-23" connectable="0" vertex="1">
          <mxGeometry x="0.0373" y="2" relative="1" as="geometry">
            <mxPoint as="offset" />
          </mxGeometry>
        </mxCell>
        <mxCell id="WaP0hfBpP9HcLUZzrM8F-24" value="&lt;div&gt;Access&amp;nbsp;&lt;/div&gt;&lt;div&gt;friends &amp;amp; groups tab&lt;/div&gt;" style="ellipse;whiteSpace=wrap;html=1;" parent="1" vertex="1">
          <mxGeometry x="-490" y="510" width="140" height="70" as="geometry" />
        </mxCell>
        <mxCell id="WaP0hfBpP9HcLUZzrM8F-25" value="Display friend list" style="ellipse;whiteSpace=wrap;html=1;" parent="1" vertex="1">
          <mxGeometry x="-290" y="460" width="140" height="70" as="geometry" />
        </mxCell>
        <mxCell id="WaP0hfBpP9HcLUZzrM8F-26" value="Manage friend list" style="ellipse;whiteSpace=wrap;html=1;" parent="1" vertex="1">
          <mxGeometry x="-75" y="420" width="140" height="70" as="geometry" />
        </mxCell>
        <mxCell id="WaP0hfBpP9HcLUZzrM8F-27" value="Display user&#39;s group chats" style="ellipse;whiteSpace=wrap;html=1;" parent="1" vertex="1">
          <mxGeometry x="-290" y="560" width="140" height="70" as="geometry" />
        </mxCell>
        <mxCell id="WaP0hfBpP9HcLUZzrM8F-29" value="Chat in a group chat" style="ellipse;whiteSpace=wrap;html=1;" parent="1" vertex="1">
          <mxGeometry x="-75" y="500" width="140" height="70" as="geometry" />
        </mxCell>
        <mxCell id="WaP0hfBpP9HcLUZzrM8F-30" value="Manage group chat " style="ellipse;whiteSpace=wrap;html=1;" parent="1" vertex="1">
          <mxGeometry x="-80" y="590" width="140" height="70" as="geometry" />
        </mxCell>
        <mxCell id="WaP0hfBpP9HcLUZzrM8F-32" value="" style="endArrow=none;dashed=1;html=1;rounded=0;entryX=0;entryY=0.5;entryDx=0;entryDy=0;exitX=1;exitY=1;exitDx=0;exitDy=0;startArrow=open;startFill=0;" parent="1" source="WaP0hfBpP9HcLUZzrM8F-24" target="WaP0hfBpP9HcLUZzrM8F-27" edge="1">
          <mxGeometry width="50" height="50" relative="1" as="geometry">
            <mxPoint x="-361" y="530" as="sourcePoint" />
            <mxPoint x="-280" y="505" as="targetPoint" />
          </mxGeometry>
        </mxCell>
        <mxCell id="WaP0hfBpP9HcLUZzrM8F-77" value="&amp;lt;&amp;lt;extend&amp;gt;&amp;gt;" style="edgeLabel;html=1;align=center;verticalAlign=middle;resizable=0;points=[];labelBackgroundColor=none;" parent="WaP0hfBpP9HcLUZzrM8F-32" connectable="0" vertex="1">
          <mxGeometry x="-0.3739" y="-5" relative="1" as="geometry">
            <mxPoint x="17" y="-1" as="offset" />
          </mxGeometry>
        </mxCell>
        <mxCell id="WaP0hfBpP9HcLUZzrM8F-33" value="" style="endArrow=none;dashed=1;html=1;rounded=0;entryX=1;entryY=0;entryDx=0;entryDy=0;exitX=0;exitY=0.5;exitDx=0;exitDy=0;" parent="1" source="WaP0hfBpP9HcLUZzrM8F-26" target="WaP0hfBpP9HcLUZzrM8F-25" edge="1">
          <mxGeometry width="50" height="50" relative="1" as="geometry">
            <mxPoint x="-361" y="580" as="sourcePoint" />
            <mxPoint x="-280" y="605" as="targetPoint" />
          </mxGeometry>
        </mxCell>
        <mxCell id="WaP0hfBpP9HcLUZzrM8F-85" value="&amp;lt;&amp;lt;extend&amp;gt;&amp;gt;" style="edgeLabel;html=1;align=center;verticalAlign=middle;resizable=0;points=[];labelBackgroundColor=none;" parent="WaP0hfBpP9HcLUZzrM8F-33" connectable="0" vertex="1">
          <mxGeometry x="0.0945" y="1" relative="1" as="geometry">
            <mxPoint x="3" y="-4" as="offset" />
          </mxGeometry>
        </mxCell>
        <mxCell id="WaP0hfBpP9HcLUZzrM8F-34" value="" style="endArrow=none;dashed=1;html=1;rounded=0;entryX=0;entryY=0.5;entryDx=0;entryDy=0;exitX=1;exitY=0;exitDx=0;exitDy=0;startArrow=open;startFill=0;" parent="1" source="WaP0hfBpP9HcLUZzrM8F-27" target="WaP0hfBpP9HcLUZzrM8F-29" edge="1">
          <mxGeometry width="50" height="50" relative="1" as="geometry">
            <mxPoint x="-100" y="445" as="sourcePoint" />
            <mxPoint x="-161" y="480" as="targetPoint" />
          </mxGeometry>
        </mxCell>
        <mxCell id="WaP0hfBpP9HcLUZzrM8F-87" value="&amp;lt;&amp;lt;extend&amp;gt;&amp;gt;" style="edgeLabel;html=1;align=center;verticalAlign=middle;resizable=0;points=[];labelBackgroundColor=none;" parent="WaP0hfBpP9HcLUZzrM8F-34" connectable="0" vertex="1">
          <mxGeometry x="0.0914" relative="1" as="geometry">
            <mxPoint as="offset" />
          </mxGeometry>
        </mxCell>
        <mxCell id="WaP0hfBpP9HcLUZzrM8F-35" value="" style="endArrow=none;dashed=1;html=1;rounded=0;entryX=0;entryY=0.5;entryDx=0;entryDy=0;exitX=1;exitY=1;exitDx=0;exitDy=0;startArrow=open;startFill=0;" parent="1" source="WaP0hfBpP9HcLUZzrM8F-27" target="WaP0hfBpP9HcLUZzrM8F-30" edge="1">
          <mxGeometry width="50" height="50" relative="1" as="geometry">
            <mxPoint x="-211" y="530" as="sourcePoint" />
            <mxPoint x="-150" y="555" as="targetPoint" />
          </mxGeometry>
        </mxCell>
        <mxCell id="WaP0hfBpP9HcLUZzrM8F-86" value="&amp;lt;&amp;lt;extend&amp;gt;&amp;gt;" style="edgeLabel;html=1;align=center;verticalAlign=middle;resizable=0;points=[];labelBackgroundColor=none;" parent="WaP0hfBpP9HcLUZzrM8F-35" connectable="0" vertex="1">
          <mxGeometry x="-0.145" y="2" relative="1" as="geometry">
            <mxPoint x="11" y="-1" as="offset" />
          </mxGeometry>
        </mxCell>
        <mxCell id="WaP0hfBpP9HcLUZzrM8F-36" value="&lt;div&gt;Access profile&lt;/div&gt;&lt;div&gt;&amp;nbsp;information tab&lt;/div&gt;" style="ellipse;whiteSpace=wrap;html=1;" parent="1" vertex="1">
          <mxGeometry x="-495" y="830" width="140" height="70" as="geometry" />
        </mxCell>
        <mxCell id="WaP0hfBpP9HcLUZzrM8F-37" value="Manage profile information" style="ellipse;whiteSpace=wrap;html=1;" parent="1" vertex="1">
          <mxGeometry x="-305" y="780" width="140" height="70" as="geometry" />
        </mxCell>
        <mxCell id="WaP0hfBpP9HcLUZzrM8F-38" value="Manage login" style="ellipse;whiteSpace=wrap;html=1;" parent="1" vertex="1">
          <mxGeometry x="-305" y="880" width="140" height="70" as="geometry" />
        </mxCell>
        <mxCell id="WaP0hfBpP9HcLUZzrM8F-39" value="Authenticate user" style="ellipse;whiteSpace=wrap;html=1;" parent="1" vertex="1">
          <mxGeometry x="-100" y="830" width="140" height="70" as="geometry" />
        </mxCell>
        <mxCell id="WaP0hfBpP9HcLUZzrM8F-40" value="" style="endArrow=open;dashed=1;html=1;rounded=0;entryX=1;entryY=0;entryDx=0;entryDy=0;exitX=0;exitY=0.5;exitDx=0;exitDy=0;startArrow=none;startFill=0;endFill=0;" parent="1" source="WaP0hfBpP9HcLUZzrM8F-37" target="WaP0hfBpP9HcLUZzrM8F-36" edge="1">
          <mxGeometry width="50" height="50" relative="1" as="geometry">
            <mxPoint x="-305" y="720" as="sourcePoint" />
            <mxPoint x="-255" y="670" as="targetPoint" />
          </mxGeometry>
        </mxCell>
        <mxCell id="WaP0hfBpP9HcLUZzrM8F-98" value="&amp;lt;&amp;lt;extend&amp;gt;&amp;gt;" style="edgeLabel;html=1;align=center;verticalAlign=middle;resizable=0;points=[];labelBackgroundColor=none;" parent="WaP0hfBpP9HcLUZzrM8F-40" connectable="0" vertex="1">
          <mxGeometry x="0.0352" y="-2" relative="1" as="geometry">
            <mxPoint x="1" as="offset" />
          </mxGeometry>
        </mxCell>
        <mxCell id="WaP0hfBpP9HcLUZzrM8F-41" value="" style="endArrow=none;dashed=1;html=1;rounded=0;exitX=1;exitY=1;exitDx=0;exitDy=0;entryX=0;entryY=0.5;entryDx=0;entryDy=0;startArrow=open;startFill=0;" parent="1" source="WaP0hfBpP9HcLUZzrM8F-36" target="WaP0hfBpP9HcLUZzrM8F-38" edge="1">
          <mxGeometry width="50" height="50" relative="1" as="geometry">
            <mxPoint x="-295" y="825" as="sourcePoint" />
            <mxPoint x="-235" y="870" as="targetPoint" />
          </mxGeometry>
        </mxCell>
        <mxCell id="WaP0hfBpP9HcLUZzrM8F-99" value="&amp;lt;&amp;lt;extend&amp;gt;&amp;gt;" style="edgeLabel;html=1;align=center;verticalAlign=middle;resizable=0;points=[];labelBackgroundColor=none;" parent="WaP0hfBpP9HcLUZzrM8F-41" connectable="0" vertex="1">
          <mxGeometry x="-0.0375" y="-4" relative="1" as="geometry">
            <mxPoint as="offset" />
          </mxGeometry>
        </mxCell>
        <mxCell id="WaP0hfBpP9HcLUZzrM8F-42" value="" style="endArrow=open;dashed=1;html=1;rounded=0;entryX=1;entryY=0.5;entryDx=0;entryDy=0;startArrow=none;startFill=0;endFill=0;" parent="1" source="WaP0hfBpP9HcLUZzrM8F-39" target="WaP0hfBpP9HcLUZzrM8F-38" edge="1">
          <mxGeometry width="50" height="50" relative="1" as="geometry">
            <mxPoint x="-366" y="850" as="sourcePoint" />
            <mxPoint x="-295" y="925" as="targetPoint" />
          </mxGeometry>
        </mxCell>
        <mxCell id="WaP0hfBpP9HcLUZzrM8F-100" value="&amp;lt;&amp;lt;include&amp;gt;&amp;gt;" style="edgeLabel;html=1;align=center;verticalAlign=middle;resizable=0;points=[];labelBackgroundColor=none;" parent="WaP0hfBpP9HcLUZzrM8F-42" connectable="0" vertex="1">
          <mxGeometry x="0.0276" y="4" relative="1" as="geometry">
            <mxPoint y="-4" as="offset" />
          </mxGeometry>
        </mxCell>
        <mxCell id="WaP0hfBpP9HcLUZzrM8F-43" value="Retrieve weather data" style="ellipse;whiteSpace=wrap;html=1;" parent="1" vertex="1">
          <mxGeometry x="-100" y="220" width="140" height="70" as="geometry" />
        </mxCell>
        <mxCell id="WaP0hfBpP9HcLUZzrM8F-44" value="" style="endArrow=none;dashed=1;html=1;rounded=0;entryX=1;entryY=0.5;entryDx=0;entryDy=0;exitX=0;exitY=0;exitDx=0;exitDy=0;startArrow=open;startFill=0;" parent="1" source="WaP0hfBpP9HcLUZzrM8F-43" target="WaP0hfBpP9HcLUZzrM8F-16" edge="1">
          <mxGeometry width="50" height="50" relative="1" as="geometry">
            <mxPoint x="-315" y="290" as="sourcePoint" />
            <mxPoint x="-265" y="240" as="targetPoint" />
          </mxGeometry>
        </mxCell>
        <mxCell id="WaP0hfBpP9HcLUZzrM8F-56" value="&amp;lt;&amp;lt;include&amp;gt;&amp;gt;" style="edgeLabel;html=1;align=center;verticalAlign=middle;resizable=0;points=[];labelBackgroundColor=none;" parent="WaP0hfBpP9HcLUZzrM8F-44" connectable="0" vertex="1">
          <mxGeometry x="0.201" y="2" relative="1" as="geometry">
            <mxPoint x="1" y="3" as="offset" />
          </mxGeometry>
        </mxCell>
        <mxCell id="WaP0hfBpP9HcLUZzrM8F-45" value="" style="endArrow=open;dashed=1;html=1;rounded=0;exitX=1;exitY=0.5;exitDx=0;exitDy=0;endFill=0;" parent="1" source="WaP0hfBpP9HcLUZzrM8F-17" target="WaP0hfBpP9HcLUZzrM8F-43" edge="1">
          <mxGeometry width="50" height="50" relative="1" as="geometry">
            <mxPoint x="-125.00252531694173" y="305.25126265847075" as="sourcePoint" />
            <mxPoint x="-94.5" y="240" as="targetPoint" />
          </mxGeometry>
        </mxCell>
        <mxCell id="WaP0hfBpP9HcLUZzrM8F-58" value="&amp;lt;&amp;lt;include&amp;gt;&amp;gt;" style="edgeLabel;html=1;align=center;verticalAlign=middle;resizable=0;points=[];labelBackgroundColor=none;" parent="WaP0hfBpP9HcLUZzrM8F-45" connectable="0" vertex="1">
          <mxGeometry x="0.1701" y="-1" relative="1" as="geometry">
            <mxPoint x="-11" y="1" as="offset" />
          </mxGeometry>
        </mxCell>
        <mxCell id="WaP0hfBpP9HcLUZzrM8F-46" value="Access wishlist tab" style="ellipse;whiteSpace=wrap;html=1;" parent="1" vertex="1">
          <mxGeometry x="-470" y="20" width="140" height="70" as="geometry" />
        </mxCell>
        <mxCell id="WaP0hfBpP9HcLUZzrM8F-47" value="&lt;div&gt;Manage wishlist&amp;nbsp;&lt;/div&gt;&lt;div&gt;items&lt;/div&gt;" style="ellipse;whiteSpace=wrap;html=1;" parent="1" vertex="1">
          <mxGeometry x="-210" y="20" width="140" height="70" as="geometry" />
        </mxCell>
        <mxCell id="WaP0hfBpP9HcLUZzrM8F-48" value="" style="endArrow=none;dashed=1;html=1;rounded=0;entryX=0;entryY=0.5;entryDx=0;entryDy=0;exitX=1;exitY=0.5;exitDx=0;exitDy=0;startArrow=open;startFill=0;" parent="1" source="WaP0hfBpP9HcLUZzrM8F-46" target="WaP0hfBpP9HcLUZzrM8F-47" edge="1">
          <mxGeometry width="50" height="50" relative="1" as="geometry">
            <mxPoint x="-370" y="340" as="sourcePoint" />
            <mxPoint x="-320" y="290" as="targetPoint" />
          </mxGeometry>
        </mxCell>
        <mxCell id="WaP0hfBpP9HcLUZzrM8F-91" value="&amp;lt;&amp;lt;extend&amp;gt;&amp;gt;" style="edgeLabel;html=1;align=center;verticalAlign=middle;resizable=0;points=[];labelBackgroundColor=none;" parent="WaP0hfBpP9HcLUZzrM8F-48" connectable="0" vertex="1">
          <mxGeometry x="0.0909" y="3" relative="1" as="geometry">
            <mxPoint x="-8" y="3" as="offset" />
          </mxGeometry>
        </mxCell>
        <mxCell id="WaP0hfBpP9HcLUZzrM8F-49" value="User" style="shape=umlActor;verticalLabelPosition=bottom;verticalAlign=top;html=1;outlineConnect=0;" parent="1" vertex="1">
          <mxGeometry x="-760" y="10" width="30" height="60" as="geometry" />
        </mxCell>
        <mxCell id="WaP0hfBpP9HcLUZzrM8F-52" value="Logged-in User" style="shape=umlActor;verticalLabelPosition=bottom;verticalAlign=top;html=1;outlineConnect=0;" parent="1" vertex="1">
          <mxGeometry x="-760" y="420" width="30" height="60" as="geometry" />
        </mxCell>
        <mxCell id="WaP0hfBpP9HcLUZzrM8F-53" value="&amp;lt;&amp;lt;extends&amp;gt;&amp;gt;" style="endArrow=block;endSize=16;endFill=0;html=1;rounded=0;exitX=0.5;exitY=0;exitDx=0;exitDy=0;exitPerimeter=0;labelBackgroundColor=none;" parent="1" source="WaP0hfBpP9HcLUZzrM8F-52" edge="1">
          <mxGeometry width="160" relative="1" as="geometry">
            <mxPoint x="-470" y="140" as="sourcePoint" />
            <mxPoint x="-745" y="100" as="targetPoint" />
          </mxGeometry>
        </mxCell>
        <mxCell id="WaP0hfBpP9HcLUZzrM8F-54" value="" style="endArrow=none;html=1;rounded=0;entryX=0;entryY=0.5;entryDx=0;entryDy=0;exitX=1;exitY=0.3333333333333333;exitDx=0;exitDy=0;exitPerimeter=0;" parent="1" source="WaP0hfBpP9HcLUZzrM8F-52" target="WaP0hfBpP9HcLUZzrM8F-24" edge="1">
          <mxGeometry width="50" height="50" relative="1" as="geometry">
            <mxPoint x="-350" y="310" as="sourcePoint" />
            <mxPoint x="-300" y="260" as="targetPoint" />
          </mxGeometry>
        </mxCell>
        <mxCell id="WaP0hfBpP9HcLUZzrM8F-55" value="" style="endArrow=none;html=1;rounded=0;entryX=0;entryY=0.5;entryDx=0;entryDy=0;exitX=1;exitY=1;exitDx=0;exitDy=0;exitPerimeter=0;" parent="1" source="WaP0hfBpP9HcLUZzrM8F-52" target="WaP0hfBpP9HcLUZzrM8F-36" edge="1">
          <mxGeometry width="50" height="50" relative="1" as="geometry">
            <mxPoint x="-660" y="450" as="sourcePoint" />
            <mxPoint x="-510" y="385" as="targetPoint" />
          </mxGeometry>
        </mxCell>
        <mxCell id="WaP0hfBpP9HcLUZzrM8F-59" value="Weather API" style="shape=umlActor;verticalLabelPosition=bottom;verticalAlign=top;html=1;outlineConnect=0;" parent="1" vertex="1">
          <mxGeometry x="190" y="170" width="30" height="60" as="geometry" />
        </mxCell>
        <mxCell id="WaP0hfBpP9HcLUZzrM8F-60" value="" style="endArrow=none;html=1;rounded=0;entryX=1;entryY=0.5;entryDx=0;entryDy=0;exitX=0;exitY=0.3333333333333333;exitDx=0;exitDy=0;exitPerimeter=0;" parent="1" source="WaP0hfBpP9HcLUZzrM8F-59" target="WaP0hfBpP9HcLUZzrM8F-43" edge="1">
          <mxGeometry width="50" height="50" relative="1" as="geometry">
            <mxPoint x="-160" y="190" as="sourcePoint" />
            <mxPoint x="-110" y="140" as="targetPoint" />
          </mxGeometry>
        </mxCell>
        <mxCell id="WaP0hfBpP9HcLUZzrM8F-62" value="Wardrobe management" style="text;html=1;align=center;verticalAlign=middle;whiteSpace=wrap;rounded=0;movable=0;resizable=0;rotatable=0;deletable=0;editable=0;locked=1;connectable=0;" parent="1" vertex="1">
          <mxGeometry x="-545" y="-290" width="190" height="30" as="geometry" />
        </mxCell>
        <mxCell id="WaP0hfBpP9HcLUZzrM8F-63" value="" style="endArrow=none;html=1;rounded=0;entryX=0;entryY=0.5;entryDx=0;entryDy=0;exitX=0.75;exitY=0.1;exitDx=0;exitDy=0;exitPerimeter=0;" parent="1" source="WaP0hfBpP9HcLUZzrM8F-49" target="WaP0hfBpP9HcLUZzrM8F-11" edge="1">
          <mxGeometry width="50" height="50" relative="1" as="geometry">
            <mxPoint x="-500" y="130" as="sourcePoint" />
            <mxPoint x="-450" y="80" as="targetPoint" />
          </mxGeometry>
        </mxCell>
        <mxCell id="WaP0hfBpP9HcLUZzrM8F-65" value="Wishlist management" style="text;html=1;align=center;verticalAlign=middle;whiteSpace=wrap;rounded=0;movable=0;resizable=0;rotatable=0;deletable=0;editable=0;locked=1;connectable=0;" parent="1" vertex="1">
          <mxGeometry x="-520" y="-30" width="140" height="30" as="geometry" />
        </mxCell>
        <mxCell id="WaP0hfBpP9HcLUZzrM8F-66" value="" style="endArrow=none;html=1;rounded=0;entryX=0;entryY=0.5;entryDx=0;entryDy=0;exitX=1;exitY=0.3333333333333333;exitDx=0;exitDy=0;exitPerimeter=0;" parent="1" source="WaP0hfBpP9HcLUZzrM8F-49" target="WaP0hfBpP9HcLUZzrM8F-46" edge="1">
          <mxGeometry width="50" height="50" relative="1" as="geometry">
            <mxPoint x="-400" y="60" as="sourcePoint" />
            <mxPoint x="-350" y="10" as="targetPoint" />
          </mxGeometry>
        </mxCell>
        <mxCell id="WaP0hfBpP9HcLUZzrM8F-68" value="Outfit planning" style="text;html=1;align=center;verticalAlign=middle;whiteSpace=wrap;rounded=0;" parent="1" vertex="1">
          <mxGeometry x="-520" y="130" width="140" height="30" as="geometry" />
        </mxCell>
        <mxCell id="WaP0hfBpP9HcLUZzrM8F-72" value="" style="endArrow=none;dashed=1;html=1;rounded=0;entryX=0;entryY=0.5;entryDx=0;entryDy=0;startArrow=open;startFill=0;" parent="1" source="WaP0hfBpP9HcLUZzrM8F-24" target="WaP0hfBpP9HcLUZzrM8F-25" edge="1">
          <mxGeometry width="50" height="50" relative="1" as="geometry">
            <mxPoint x="-390" y="600" as="sourcePoint" />
            <mxPoint x="-340" y="550" as="targetPoint" />
          </mxGeometry>
        </mxCell>
        <mxCell id="WaP0hfBpP9HcLUZzrM8F-82" value="&amp;lt;&amp;lt;extend&amp;gt;&amp;gt;" style="edgeLabel;html=1;align=center;verticalAlign=middle;resizable=0;points=[];labelBackgroundColor=none;" parent="WaP0hfBpP9HcLUZzrM8F-72" connectable="0" vertex="1">
          <mxGeometry x="0.345" y="2" relative="1" as="geometry">
            <mxPoint x="-15" y="7" as="offset" />
          </mxGeometry>
        </mxCell>
        <mxCell id="WaP0hfBpP9HcLUZzrM8F-73" value="Social features" style="text;html=1;align=center;verticalAlign=middle;whiteSpace=wrap;rounded=0;" parent="1" vertex="1">
          <mxGeometry x="-520" y="380" width="140" height="30" as="geometry" />
        </mxCell>
        <mxCell id="WaP0hfBpP9HcLUZzrM8F-74" value="" style="endArrow=none;html=1;rounded=0;entryX=0;entryY=0.5;entryDx=0;entryDy=0;exitX=0.5;exitY=0.5;exitDx=0;exitDy=0;exitPerimeter=0;" parent="1" source="WaP0hfBpP9HcLUZzrM8F-49" target="WaP0hfBpP9HcLUZzrM8F-15" edge="1">
          <mxGeometry width="50" height="50" relative="1" as="geometry">
            <mxPoint x="-720" y="40" as="sourcePoint" />
            <mxPoint x="-485" y="65" as="targetPoint" />
          </mxGeometry>
        </mxCell>
        <mxCell id="WaP0hfBpP9HcLUZzrM8F-75" value="Authentication API" style="shape=umlActor;verticalLabelPosition=bottom;verticalAlign=top;html=1;outlineConnect=0;" parent="1" vertex="1">
          <mxGeometry x="190" y="770" width="30" height="60" as="geometry" />
        </mxCell>
        <mxCell id="WaP0hfBpP9HcLUZzrM8F-76" value="" style="endArrow=none;html=1;rounded=0;entryX=0;entryY=0.3333333333333333;entryDx=0;entryDy=0;entryPerimeter=0;exitX=1;exitY=0.5;exitDx=0;exitDy=0;" parent="1" source="WaP0hfBpP9HcLUZzrM8F-39" target="WaP0hfBpP9HcLUZzrM8F-75" edge="1">
          <mxGeometry width="50" height="50" relative="1" as="geometry">
            <mxPoint x="-400" y="790" as="sourcePoint" />
            <mxPoint x="-350" y="740" as="targetPoint" />
          </mxGeometry>
        </mxCell>
        <mxCell id="WaP0hfBpP9HcLUZzrM8F-78" value="&lt;div&gt;User has at least&amp;nbsp;&lt;/div&gt;&lt;div&gt;1 group chat&lt;/div&gt;" style="rounded=0;whiteSpace=wrap;html=1;dashed=1;" parent="1" vertex="1">
          <mxGeometry x="-425" y="635" width="120" height="40" as="geometry" />
        </mxCell>
        <mxCell id="WaP0hfBpP9HcLUZzrM8F-80" value="" style="endArrow=none;dashed=1;html=1;rounded=0;exitX=0.75;exitY=0;exitDx=0;exitDy=0;" parent="1" source="WaP0hfBpP9HcLUZzrM8F-78" edge="1">
          <mxGeometry width="50" height="50" relative="1" as="geometry">
            <mxPoint x="-355" y="534" as="sourcePoint" />
            <mxPoint x="-335" y="580" as="targetPoint" />
          </mxGeometry>
        </mxCell>
        <mxCell id="WaP0hfBpP9HcLUZzrM8F-81" value="&lt;div&gt;User has at least&amp;nbsp;&lt;/div&gt;&lt;div&gt;1 friend&lt;/div&gt;" style="rounded=0;whiteSpace=wrap;html=1;dashed=1;" parent="1" vertex="1">
          <mxGeometry x="-415" y="430" width="120" height="40" as="geometry" />
        </mxCell>
        <mxCell id="WaP0hfBpP9HcLUZzrM8F-83" value="" style="endArrow=none;dashed=1;html=1;rounded=0;entryX=0.75;entryY=1;entryDx=0;entryDy=0;" parent="1" target="WaP0hfBpP9HcLUZzrM8F-81" edge="1">
          <mxGeometry width="50" height="50" relative="1" as="geometry">
            <mxPoint x="-325" y="510" as="sourcePoint" />
            <mxPoint x="-330" y="495" as="targetPoint" />
          </mxGeometry>
        </mxCell>
        <mxCell id="WaP0hfBpP9HcLUZzrM8F-84" value="User has administrative prvilages for the group chat" style="rounded=0;whiteSpace=wrap;html=1;dashed=1;" parent="1" vertex="1">
          <mxGeometry x="-240" y="660" width="160" height="40" as="geometry" />
        </mxCell>
        <mxCell id="WaP0hfBpP9HcLUZzrM8F-88" value="" style="endArrow=none;dashed=1;html=1;rounded=0;exitX=0.75;exitY=0;exitDx=0;exitDy=0;" parent="1" source="WaP0hfBpP9HcLUZzrM8F-84" edge="1">
          <mxGeometry width="50" height="50" relative="1" as="geometry">
            <mxPoint x="-325" y="645" as="sourcePoint" />
            <mxPoint x="-120" y="620" as="targetPoint" />
          </mxGeometry>
        </mxCell>
        <mxCell id="WaP0hfBpP9HcLUZzrM8F-94" value="User has at least 1 piece of clothing/outfit" style="rounded=0;whiteSpace=wrap;html=1;dashed=1;" parent="1" vertex="1">
          <mxGeometry x="-102.5" y="-125" width="130" height="40" as="geometry" />
        </mxCell>
        <mxCell id="WaP0hfBpP9HcLUZzrM8F-95" value="" style="endArrow=none;dashed=1;html=1;rounded=0;entryX=0.25;entryY=0;entryDx=0;entryDy=0;" parent="1" target="WaP0hfBpP9HcLUZzrM8F-94" edge="1">
          <mxGeometry width="50" height="50" relative="1" as="geometry">
            <mxPoint x="-102.5" y="-160" as="sourcePoint" />
            <mxPoint x="-242.5" y="-95" as="targetPoint" />
          </mxGeometry>
        </mxCell>
        <mxCell id="WaP0hfBpP9HcLUZzrM8F-103" value="Profile management" style="text;html=1;align=center;verticalAlign=middle;whiteSpace=wrap;rounded=0;" parent="1" vertex="1">
          <mxGeometry x="-515" y="730" width="140" height="30" as="geometry" />
        </mxCell>
        <mxCell id="WaP0hfBpP9HcLUZzrM8F-105" value="&lt;b&gt;&lt;font style=&quot;font-size: 20px;&quot;&gt;System&lt;/font&gt;&lt;/b&gt;" style="text;html=1;align=center;verticalAlign=middle;whiteSpace=wrap;rounded=0;" parent="1" vertex="1">
          <mxGeometry x="27.5" y="-330" width="60" height="30" as="geometry" />
        </mxCell>
      </root>
    </mxGraphModel>
  </diagram>
</mxfile>
